<svg id="Layer_1" data-name="Layer 1" xmlns="http://www.w3.org/2000/svg" viewBox="0 0 506.91 162.81"><defs><style>.cls-1,.cls-2{fill:#5500b6;}.cls-2{fill-rule:evenodd;}.cls-3{fill:#58595b;}</style></defs><title>oracle logo</title><path class="cls-1" d="M299.1,337.21c-63.14.6-63.13,95.36,0,96,63.14-.6,63.13-95.36,0-96m0,75.39c-35.54.46-35.53-55.3,0-54.83C334.63,357.31,334.62,413.07,299.1,412.6Z" transform="translate(-251.75 -337.21)"/><path class="cls-1" d="M408.82,397.44c29.36-14.15,17.28-59-14.63-58.38h-36.9v92.25h21.09V401h10l17.4,30.31h22.67Zm-14.63-14.89H378.38V358.82h15.81C408.05,359,408.05,382.42,394.19,382.55Z" transform="translate(-251.75 -337.21)"/><path class="cls-1" d="M493.33,339.06l-13.44,24.11C484.93,379,492,401,497,416.81h0c1,3,3.7,11.62,4.61,14.5H524.7Zm-26.89,0-31.36,92.25h23.06c.51-1.6,4.21-13.23,4.62-14.5h0c3.95-12.37,13.29-41.59,17.13-53.64Z" transform="translate(-251.75 -337.21)"/><path class="cls-1" d="M569.1,412.6c-35.67,1.46-35.66-56.3,0-54.83,9.35,0,17.26,4.22,21.35,11.33l18.19-10.54c-23.15-39-90.34-20-87.51,26.63-2.91,46.61,64.6,65.69,87.51,26.62l-18.19-10.55c-4,7.12-12,11.34-21.35,11.34" transform="translate(-251.75 -337.21)"/><polygon class="cls-1" points="389.17 73.81 389.17 1.85 368.09 1.85 368.09 94.1 422.13 94.1 422.13 73.81 389.17 73.81"/><polygon class="cls-1" points="453.75 73.81 453.75 57.46 486.7 57.46 486.7 37.43 453.75 37.43 453.75 22.14 490 22.14 490 1.85 432.67 1.85 432.67 94.1 490.65 94.1 490.65 73.81 453.75 73.81"/><path class="cls-1" d="M491.44,337.21c-1,1.72-10.35,18.49-11.55,20.65-1.26-2.25-10.51-18.85-11.51-20.65Z" transform="translate(-251.75 -337.21)"/><path class="cls-2" d="M755.87,340.9c0-1.83-2.29-1.51-3.49-1.51a.58.58,0,0,1,.17.44c-.07.29.19,4.06-.17,4.16h1.37c-.28-.16-.15-.92-.18-1.18a4,4,0,0,0,.87-.25c0,.26.67,1.25.3,1.43h1.33c-.29-.15-.62-1.45-.76-1.73a2.67,2.67,0,0,1-.51.12,1.79,1.79,0,0,0,1.07-1.48m-1.65,5.31c5.91-.11,5.91-8.89,0-9C748.31,337.32,748.31,346.1,754.22,346.21Zm0-.84c4.81-.1,4.81-7.22,0-7.32C749.41,338.15,749.42,345.27,754.22,345.37Zm-.65-3c-.06-.34.17-2.32-.18-2.52C755.31,339.58,755.23,342,753.57,342.34Z" transform="translate(-251.75 -337.21)"/><path class="cls-3" d="M731.46,478.43a8.62,8.62,0,0,0-2.58-1.78,7.4,7.4,0,0,0-3.13-.67h-.17a7.64,7.64,0,0,0-3.17.67,9.07,9.07,0,0,0-2.65,1.78,8.76,8.76,0,0,0-1.84,2.6,7.39,7.39,0,0,0-.69,3.15,7.79,7.79,0,0,0,.65,3.13,8.22,8.22,0,0,0,4.3,4.25,7.91,7.91,0,0,0,3.14.64h3.37a3.35,3.35,0,0,1-.41,1.57,2.76,2.76,0,0,1-1.23,1.06,7.27,7.27,0,0,1-2.17.59,23.32,23.32,0,0,1-3.27.19h-.85V500h1.32q5.59,0,8.67-1.84a6.36,6.36,0,0,0,3.09-5.91v-8a7.82,7.82,0,0,0-.64-3.15A8.13,8.13,0,0,0,731.46,478.43Zm-6,9.43a2.66,2.66,0,0,1-1.36-.36,4.27,4.27,0,0,1-1.09-.92,4.42,4.42,0,0,1-.74-1.3,4,4,0,0,1-.26-1.43,3.28,3.28,0,0,1,1-2.44,3.33,3.33,0,0,1,2.37-1,3.47,3.47,0,0,1,1.25.24,3,3,0,0,1,1.09.76,3.44,3.44,0,0,1,.74,1.1,3.25,3.25,0,0,1,.28,1.34v4Z" transform="translate(-251.75 -337.21)"/><path class="cls-3" d="M572.53,494.53h-.17a2.59,2.59,0,0,0-1.94.82,2.69,2.69,0,0,0-.8,2,2.55,2.55,0,0,0,.8,1.9,2.61,2.61,0,0,0,1.94.8h.17a2.73,2.73,0,0,0,2.75-2.7,2.73,2.73,0,0,0-.8-2A2.6,2.6,0,0,0,572.53,494.53Z" transform="translate(-251.75 -337.21)"/><path class="cls-3" d="M743.52,458.54h-1.39a1.58,1.58,0,0,1-1.21-.35,1.19,1.19,0,0,1-.31-.83,1.15,1.15,0,0,1,.31-.82,1.36,1.36,0,0,1,1-.33h1.49v-2.48h-2.21a3.38,3.38,0,0,0-1.34.27,4,4,0,0,0-1.11.75,3.42,3.42,0,0,0-.76,1.07,3.06,3.06,0,0,0-.28,1.24,2.8,2.8,0,0,0,.49,1.48h-1.53v2.27h7v-2.27Z" transform="translate(-251.75 -337.21)"/><path class="cls-3" d="M690.2,478.6a8.43,8.43,0,0,0-2.58-1.67,8,8,0,0,0-3.14-.62h-5.42l12.1-10.61-3-3.55-.09.08-.08-.08-13,11.42a4.91,4.91,0,0,0-1.46,2,5.58,5.58,0,0,0-.43,2.23l0,2.64H684a3.51,3.51,0,0,1,1.34.25,3,3,0,0,1,1.09.76,3.44,3.44,0,0,1,.74,1.1,3.25,3.25,0,0,1,.28,1.34v4H669.32a3,3,0,0,1-2.21-.67,3.12,3.12,0,0,1-.61-2.15V462.85h-5.1v29.31a3.14,3.14,0,0,1-.28,1.37,3.51,3.51,0,0,1-.73,1.11,3.39,3.39,0,0,1-1.1.76,3.19,3.19,0,0,1-1.34.28h-3.84a3.25,3.25,0,0,1-1.34-.28,3.3,3.3,0,0,1-1.08-.76,3.56,3.56,0,0,1-.75-1.11,3.46,3.46,0,0,1-.28-1.37V482h-5.1v9.86a8,8,0,0,0,2.38,5.75,8.7,8.7,0,0,0,2.57,1.78,7.6,7.6,0,0,0,3.14.67h4.76a7.56,7.56,0,0,0,3.14-.67,8.74,8.74,0,0,0,2.58-1.78,8.09,8.09,0,0,0,2.37-5.75v-1.1a4.71,4.71,0,0,0,1.67,1.13,7.33,7.33,0,0,0,2.4.35h22v-8a7.63,7.63,0,0,0-2.37-5.58Z" transform="translate(-251.75 -337.21)"/><path class="cls-3" d="M612.14,494.53H612a2.61,2.61,0,0,0-2,.82,2.72,2.72,0,0,0-.79,2,2.58,2.58,0,0,0,.79,1.9,2.63,2.63,0,0,0,2,.8h.16a2.71,2.71,0,0,0,2.75-2.7,2.77,2.77,0,0,0-.79-2A2.62,2.62,0,0,0,612.14,494.53Z" transform="translate(-251.75 -337.21)"/><path class="cls-3" d="M606,494.53h-.17a2.58,2.58,0,0,0-1.94.82,2.7,2.7,0,0,0-.81,2,2.56,2.56,0,0,0,.81,1.9,2.6,2.6,0,0,0,1.94.8H606a2.66,2.66,0,0,0,2-.8,2.58,2.58,0,0,0,.79-1.9,2.72,2.72,0,0,0-.79-2A2.65,2.65,0,0,0,606,494.53Z" transform="translate(-251.75 -337.21)"/><path class="cls-3" d="M632.05,478.43a9.21,9.21,0,0,0-2.65-1.78,7.69,7.69,0,0,0-3.18-.67h-.17a7.43,7.43,0,0,0-3.13.67,8.57,8.57,0,0,0-2.57,1.78,8.15,8.15,0,0,0-2.39,5.75v3.68h-3.73a2.93,2.93,0,0,1-2.21-.67,3.12,3.12,0,0,1-.61-2.15v-6.83h-5.07v7a2.43,2.43,0,0,1-.78,2.08,4,4,0,0,1-2.45.6H598.7v-3.68a7.69,7.69,0,0,0-.63-3.09,7.44,7.44,0,0,0-1.75-2.49,8.38,8.38,0,0,0-2.57-1.67,8.07,8.07,0,0,0-3.14-.62H586l0,4.09h4.16a3.58,3.58,0,0,1,1.34.25,3,3,0,0,1,1.08.76,3.64,3.64,0,0,1,.75,1.1,3.42,3.42,0,0,1,.28,1.34v4H583.47v4.34H605a7.07,7.07,0,0,0,3.3-.73,4.69,4.69,0,0,0,2-2.07,6.38,6.38,0,0,0,2.15,2.16,6.25,6.25,0,0,0,3,.64h11a7.91,7.91,0,0,0,3.14-.64,8.12,8.12,0,0,0,4.3-4.25,7.63,7.63,0,0,0,.65-3.13,7.24,7.24,0,0,0-.69-3.15A8.55,8.55,0,0,0,632.05,478.43Zm-9,9.43v-4a3.25,3.25,0,0,1,.28-1.34,3.61,3.61,0,0,1,.74-1.1,3.07,3.07,0,0,1,1.09-.76,3.56,3.56,0,0,1,1.25-.24,3.41,3.41,0,0,1,3.37,3.44,4,4,0,0,1-.26,1.43,4.42,4.42,0,0,1-.74,1.3,3.9,3.9,0,0,1-1.11.92,2.67,2.67,0,0,1-1.34.36Z" transform="translate(-251.75 -337.21)"/><path class="cls-3" d="M578.65,494.53h-.16a2.6,2.6,0,0,0-2,.82,2.72,2.72,0,0,0-.79,2,2.58,2.58,0,0,0,.79,1.9,2.62,2.62,0,0,0,2,.8h.16a2.73,2.73,0,0,0,2.75-2.7,2.73,2.73,0,0,0-.8-2A2.6,2.6,0,0,0,578.65,494.53Z" transform="translate(-251.75 -337.21)"/><path class="cls-3" d="M709.3,478.21h-.17v15.32a2.44,2.44,0,0,1-.46,1.58,1.91,1.91,0,0,1-1.57.57H706a5.92,5.92,0,0,1-.9-.05,3.74,3.74,0,0,1-.63-.14v0l-.16,0v4.13a8.89,8.89,0,0,0,.94.23,8.17,8.17,0,0,0,1.84.17h1.47a6,6,0,0,0,2.38-.44,5.4,5.4,0,0,0,1.81-1.24,5.27,5.27,0,0,0,1.12-1.89,7,7,0,0,0,.39-2.44v-15.8H709.3Z" transform="translate(-251.75 -337.21)"/><polygon class="cls-3" points="445.3 125.64 445.14 125.64 445.14 154.98 445.3 154.98 449.92 154.98 450.1 154.98 450.1 125.64 449.92 125.64 445.3 125.64"/><polygon class="cls-3" points="486.38 125.64 486.2 125.64 486.2 154.98 486.38 154.98 490.99 154.98 491.16 154.98 491.16 125.64 490.99 125.64 486.38 125.64"/><path class="cls-3" d="M571.09,492.2h3a7.81,7.81,0,0,0,2.45-.4,5.43,5.43,0,0,0,2.11-1.24,6.13,6.13,0,0,0,1.49-2.15,8,8,0,0,0,.56-3.16v-7h-4.95v7a2.4,2.4,0,0,1-.77,2.06,4.14,4.14,0,0,1-2.46.58h-1.59a4.17,4.17,0,0,1-2.47-.58,2.42,2.42,0,0,1-.75-2.06V462.85h-4.95v22.4a8,8,0,0,0,.55,3.16,6.1,6.1,0,0,0,1.48,2.15,5.58,5.58,0,0,0,2.11,1.24,7.86,7.86,0,0,0,2.45.4h1.78Z" transform="translate(-251.75 -337.21)"/><path class="cls-3" d="M344.65,477.35a4.79,4.79,0,0,1,4.48,2.58l6.06-3.51a12.22,12.22,0,1,0,0,12.52l-6.06-3.46a4.74,4.74,0,0,1-4.48,2.59,5.36,5.36,0,0,1,0-10.72Z" transform="translate(-251.75 -337.21)"/><path class="cls-3" d="M296.32,475.27v-4.12h-6.93v23.11h6.93V483.81c0-4.57,4.07-5.72,6.93-5.26v-7.86C300.34,470.69,297.25,472.17,296.32,475.27Z" transform="translate(-251.75 -337.21)"/><path class="cls-3" d="M321.64,473.33a8.66,8.66,0,0,0-6.88-2.82c-6.06,0-11.05,5.31-11.05,12.2s5,12.19,11.05,12.19a8.68,8.68,0,0,0,6.88-2.81v2.17h6.93V471.15h-6.93Zm-5.5,15a5.64,5.64,0,1,1,5.5-5.63A5.28,5.28,0,0,1,316.14,488.34Z" transform="translate(-251.75 -337.21)"/><path class="cls-3" d="M268.65,461.27a16.82,16.82,0,1,0,16.81,16.82A16.67,16.67,0,0,0,268.65,461.27Zm0,26.43a9.61,9.61,0,1,1,9.42-9.61A9.2,9.2,0,0,1,268.65,487.7Z" transform="translate(-251.75 -337.21)"/><rect class="cls-3" x="106.21" y="123.32" width="6.93" height="33.73"/><path class="cls-3" d="M505,460.81a4.16,4.16,0,1,0,4.15,4.15A4.19,4.19,0,0,0,505,460.81Z" transform="translate(-251.75 -337.21)"/><path class="cls-3" d="M530.35,473.33a8.68,8.68,0,0,0-6.89-2.82c-6.05,0-11,5.31-11,12.2s5,12.19,11,12.19a8.71,8.71,0,0,0,6.89-2.81v2.17h6.93V471.15h-6.93Zm-5.5,15a5.64,5.64,0,1,1,5.5-5.63A5.27,5.27,0,0,1,524.85,488.34Z" transform="translate(-251.75 -337.21)"/><rect class="cls-3" x="249.81" y="133.95" width="6.93" height="23.1"/><polygon class="cls-3" points="172.97 139.07 164.2 124.7 156.8 124.7 156.8 157.05 164.2 157.05 164.2 138.24 172.56 151.97 173.39 151.97 181.75 138.24 181.75 157.05 189.15 157.05 189.15 124.7 181.75 124.7 172.97 139.07"/><path class="cls-3" d="M489.55,473.33a8.68,8.68,0,0,0-6.89-2.82c-6.05,0-11,5.31-11,12.2s5,12.19,11,12.19a8.71,8.71,0,0,0,6.89-2.81v2.17h6.93V461.91h-6.93Zm-5.5,15a5.64,5.64,0,1,1,5.5-5.63A5.27,5.27,0,0,1,484.05,488.34Z" transform="translate(-251.75 -337.21)"/><path class="cls-3" d="M381.11,470.51a11.84,11.84,0,0,0-12.29,12.2c0,6.88,4.89,12.19,12.79,12.19,4.39,0,7.81-1.61,10.08-4.76L386.14,487a6,6,0,0,1-4.43,1.75c-2.54,0-4.67-.83-5.55-3.23h16.41a13.77,13.77,0,0,0,.27-2.77C392.84,475.73,387.85,470.51,381.11,470.51ZM376,480.3a5.21,5.21,0,0,1,9.94,0Z" transform="translate(-251.75 -337.21)"/><path class="cls-3" d="M457.34,470.51a11.84,11.84,0,0,0-12.29,12.2c0,6.88,4.9,12.19,12.8,12.19,4.39,0,7.81-1.61,10.07-4.76L462.38,487a6,6,0,0,1-4.44,1.75c-2.54,0-4.66-.83-5.54-3.23h16.4a13.08,13.08,0,0,0,.28-2.77C469.08,475.73,464.09,470.51,457.34,470.51Zm-5.08,9.79a5.21,5.21,0,0,1,9.94,0Z" transform="translate(-251.75 -337.21)"/></svg>