<svg xmlns="http://www.w3.org/2000/svg" viewBox="0 0 739 782.75">
    <defs>
        <style>.cls-1{fill:#ee2f24;}.cls-2{fill:#88360e;}.cls-3{fill:#44983d;}.cls-4{fill:#1d439b;}</style>
    </defs>
    <title>Asset 3</title>
    <g id="Layer_2" data-name="Layer 2">
        <g id="Layer_1-2" data-name="Layer 1">
            <path class="cls-1"
                  d="M256.39,484.94c-55.57,0-78.67-42.77-83.14-65.76a20.51,20.51,0,0,1-.32-5.53L198.82,79.87,152.56,35.44a20.59,20.59,0,1,1,28.53-29.7l53.27,51.17a20.63,20.63,0,0,1,6.27,16.44l-7.7,99.25,260.85,2.64c35.08-1.67,61.42,6.72,78.28,24.95,19.48,21.07,18.24,46.82,17.66,52.71l-7.64,134c.91,64.08-53.48,91.86-82.5,97.61a20.52,20.52,0,0,1-4,.39H258.9l-2.51,0m-42.14-71.42c2.53,8.68,12.05,31.05,43.88,30.21h235a82.91,82.91,0,0,0,25.23-11.79c15.56-11,22.92-25.76,22.5-45,0-.55,0-1.09,0-1.63L548.63,250a12.33,12.33,0,0,1,.11-1.32c.12-1.55.66-12.64-7.19-20.86-8.24-8.62-24.26-12.58-46.32-11.46-.42,0-.82,0-1.26,0l-264.23-2.67Z"/>
            <path class="cls-1" d="M480,288.37H216.07a16.48,16.48,0,1,1,0-33H480a16.48,16.48,0,0,1,0,33"/>
            <path class="cls-1" d="M480,349.18H216.07a16.48,16.48,0,1,1,0-32.95H480a16.48,16.48,0,0,1,0,32.95"/>
            <path class="cls-1" d="M480,410H216.07a16.48,16.48,0,1,1,0-32.95H480A16.48,16.48,0,0,1,480,410"/>
            <path class="cls-1"
                  d="M252.69,616.34a56,56,0,1,1,56-56,56.05,56.05,0,0,1-56,56m0-87.27A31.28,31.28,0,1,0,284,560.35,31.31,31.31,0,0,0,252.69,529.07Z"/>
            <path class="cls-1"
                  d="M462.46,616.34a56,56,0,1,1,56-56,56.05,56.05,0,0,1-56,56m0-87.27a31.28,31.28,0,1,0,31.29,31.28A31.31,31.31,0,0,0,462.46,529.07Z"/>
            <path class="cls-2"
                  d="M347.5,86.06l-1.56,26.3a44.86,44.86,0,0,0-14.13,30.14l-1,16.68-78.2-.78,4.61-77.69a21.83,21.83,0,0,1,23-20.43l46.85,2.78a21.83,21.83,0,0,1,20.42,23"/>
            <path class="cls-3"
                  d="M559.94,58.12,502.23,24.78a31,31,0,0,0-42.17,11.31L417.3,110.16a46.93,46.93,0,0,1,18.07,39.74l-.75,12.66,75.06.76c15.08,1.85,15.12,1.76,22.84,2.58l38.73-65.62a31,31,0,0,0-11.31-42.16m-57.11,51.81a24.52,24.52,0,1,1,24.52-24.52A24.51,24.51,0,0,1,502.83,109.93Z"/>
            <path class="cls-4"
                  d="M426.12,148.06l-.71,12-39.22-.39-37.8-.38-12.14-.12,1-16.43a44.53,44.53,0,0,1,88.9,5.29"/>
            <path class="cls-1"
                  d="M29.19,702.2q12,0,18.79,3.68t9.94,12.35q3.16,8.68,3.17,24.08t-3.17,24Q54.74,775,48,778.65t-18.79,3.68q-14.38,0-29.19-1V703.22q17.27-1,29.19-1m0,11.76c-2,0-4.69,0-8,.09s-5.65.08-7.06.08v56.1q13.2.25,15.06.25,9.64,0,13.29-6.05t3.64-22.12q0-16.17-3.64-22.26T29.19,714Z"/>
            <path class="cls-1"
                  d="M135,703.22v47.55q0,17.52-6.6,24.75t-22.6,7.23q-16.67,0-23.56-7.27t-6.9-24.71V703.22H89.44v47.55q0,11.25,3.42,15.57t12.31,4.31q8.72,0,12.1-4.31t3.39-15.57V703.22Z"/>
            <path class="cls-1"
                  d="M209.59,703.22l-21.07,31.47a26.85,26.85,0,0,1-5.16,5.92V741a25.83,25.83,0,0,1,6.09,6.69l21.66,33.67H195.2l-22.34-35.2h-7.7a40,40,0,0,1,.77,7.7v27.5H151.8V703.22h14.13v23a52.71,52.71,0,0,1-.77,9h7.7l21.33-32.06Z"/>
            <path class="cls-1"
                  d="M278.8,703.22l-21.07,31.47a26.85,26.85,0,0,1-5.16,5.92V741a25.83,25.83,0,0,1,6.09,6.69l21.66,33.67H264.41l-22.34-35.2h-7.7a40,40,0,0,1,.77,7.7v27.5H221V703.22h14.13v23a52.71,52.71,0,0,1-.77,9h7.7l21.33-32.06Z"/>
            <path class="cls-1"
                  d="M310.61,703.22H324.4a4.89,4.89,0,0,1,5.08,3.8l23.43,74.29H338.45l-6.52-22.08H303l-6.43,22.08H282.09L305.45,707a5.1,5.1,0,0,1,5.16-3.8M316,714l-1.86,6.69-7.78,27h22.17l-7.79-27q-1.44-5.25-1.69-6.69Z"/>
            <path class="cls-1"
                  d="M425.6,703.22v72.85c0,3.5-1.72,5.24-5.16,5.24H409.18a5.55,5.55,0,0,1-3.51-1,8.43,8.43,0,0,1-2.33-3.3l-22-47.81c-2.7-6-4.26-9.93-4.65-11.68h-1.35a83.31,83.31,0,0,1,.68,11.77v52H362.14V708.46q0-5.24,5.33-5.24h10.91a5.55,5.55,0,0,1,3.56,1,9.61,9.61,0,0,1,2.37,3.3l21.24,46.54q2.7,5.67,5.5,12.35h1.35q-.6-7.53-.59-12.69V703.22Z"/>
            <polygon class="cls-1"
                     points="518 715.4 493.96 715.4 493.96 781.31 479.67 781.31 479.67 715.4 455.8 715.4 455.8 703.22 518 703.22 518 715.4"/>
            <path class="cls-1"
                  d="M539.61,705.46q6.81-3.69,19-3.68t19,3.68q6.84,3.67,10,12.44t3.18,24.4q0,15.66-3.18,24.37t-10,12.4q-6.85,3.67-19,3.68t-19-3.68q-6.81-3.68-10-12.4t-3.18-24.37q0-15.64,3.18-24.4t10-12.44m32.58,14.47q-3.68-6.06-13.58-6t-13.58,6q-3.69,6-3.68,22.37T545,764.6q3.68,6.06,13.58,6t13.58-6q3.67-6,3.68-22.3T572.19,719.93Z"/>
            <path class="cls-1"
                  d="M637,701.78a84.13,84.13,0,0,1,22.43,2.62l-1.19,10.49q-11.76-.67-20.56-.67a45.91,45.91,0,0,0-7.83.54,16,16,0,0,0-5.58,2.16,9.86,9.86,0,0,0-3.89,4.78,34.68,34.68,0,0,0-2,8.25,93.8,93.8,0,0,0-.72,12.78q0,15.66,3.09,21.74t11,6.1q7.78,0,16.42-5.42V736.3h13.79v45H651.43l-1.27-7.7a31.89,31.89,0,0,1-22.85,9.14q-12.94,0-18.7-9.77t-5.75-31q0-15.74,3.39-24.41t10.61-12.23q7.25-3.55,20.18-3.55"/>
            <path class="cls-1"
                  d="M687.77,705.46q6.81-3.69,19-3.68t19,3.68q6.86,3.67,10,12.44T739,742.3q0,15.66-3.17,24.37t-10,12.4q-6.85,3.67-19,3.68t-19-3.68q-6.81-3.68-10-12.4t-3.17-24.37q0-15.64,3.17-24.4t10-12.44m32.57,14.47q-3.68-6.06-13.58-6t-13.58,6q-3.67,6-3.68,22.37t3.68,22.3q3.69,6.06,13.58,6t13.58-6q3.69-6,3.68-22.3T720.34,719.93Z"/>
            <path class="cls-1" d="M120.66,693.32H135V680.7H120.66Zm-45.36,0H89.43V680.7H75.3Z"/>
        </g>
    </g>
</svg>
